# xmcd CD database file
#
# Track frame offsets:
#	150
#	16545
#	35366
#	52768
#	74654
#	97536
#	115742
#
# Disc length: 1736 seconds
#
# Revision: 1
# Processed by: cddbd v1.5.2PL0 Copyright (c) Steve Scherf et al.
# Submitted via: CDex 1.70beta2
#
DISCID=4406c607
DTITLE=compilation - Jazz Magazine 594 - 07-08-2008 Jazz à la Villette 2008
DYEAR=2008
DGENRE=Jazz
TTITLE0=James Chance and The Contorsions - I don't want nobody to give me nothing
TTITLE1=Bumcello - Mandragore
TTITLE2=Free Form Funky Freqs - Over and Under
TTITLE3=Le Sacre du Tympan - Fool that I am
TTITLE4=The Ex and Getatchew Mekuria - Eywat Setenafegagn
TTITLE5=E.S.T. - Goldwrapp
TTITLE6=Eryk Truffaz/Sly Johnson - La Mouche
EXTD=YEAR: 2008
EXTT0=
EXTT1=
EXTT2=
EXTT3=
EXTT4=
EXTT5=
EXTT6=
PLAYORDER=
